# 3ds Max Wavefront OBJ Exporter v0.97b - (c)2007 guruware
# File Created: 21.12.2012 03:38:54

mtllib door1.mtl

#
# object Box015
#

v  -4.566527 -3.463326 -11.720455
v  -4.566527 -3.463326 -13.790437
v  5.383066 -3.378659 -13.790437
v  5.383066 -3.378659 -11.720455
v  -4.566527 21.094738 -11.720455
v  5.383066 21.179407 -11.720455
v  5.383066 21.179407 -13.790437
v  -4.566527 21.094738 -13.790437
# 8 vertices

vn 0.008509 -0.999964 -0.000000
vn -0.008510 0.999964 -0.000000
vn 0.000000 0.000000 1.000000
vn 1.000000 0.000000 -0.000000
vn 0.000000 0.000000 -1.000000
vn -1.000000 0.000000 -0.000000
# 6 vertex normals

vt 1.000000 0.000000 0.000000
vt 1.000000 1.000000 0.000000
vt 0.000000 1.000000 0.000000
vt 0.000000 0.000000 0.000000
# 4 texture coords

g Box015
usemtl wire_088177026
f 1/1/1 2/2/1 3/3/1 
f 3/3/1 4/4/1 1/1/1 
f 5/4/2 6/1/2 7/2/2 
f 7/2/2 8/3/2 5/4/2 
f 1/4/3 4/1/3 6/2/3 
f 6/2/3 5/3/3 1/4/3 
f 4/4/4 3/1/4 7/2/4 
f 7/2/4 6/3/4 4/4/4 
f 3/4/5 2/1/5 8/2/5 
f 8/2/5 7/3/5 3/4/5 
f 2/4/6 1/1/6 5/2/6 
f 5/2/6 8/3/6 2/4/6 
# 12 faces

