# 3ds Max Wavefront OBJ Exporter v0.97b - (c)2007 guruware
# File Created: 11.01.2013 05:18:24

#
# object item1
#

v  0.351152 -0.585511 -0.316601
v  -0.321829 -0.585511 -0.316601
v  -0.321829 -0.585511 0.318274
v  0.351152 -0.585511 0.318274
# 4 vertices

vn 0.000000 1.000000 -0.000000
# 1 vertex normals

vt 1.000000 1.000000 0.000000
vt 0.000000 1.000000 0.000000
vt 0.000000 0.000000 0.000000
vt 1.000000 0.000000 0.000000
# 4 texture coords

g item1
f 1/1/1 2/2/1 3/3/1 
f 3/3/1 4/4/1 1/1/1 
# 2 faces

#
# object item002
#

v  0.351152 -0.585511 -0.316601
v  -0.321829 -0.585511 -0.316601
v  -0.321829 -0.585511 0.318274
v  0.351152 -0.585511 0.318274
# 4 vertices

vn 0.000000 1.000000 -0.000000
# 1 vertex normals

vt 1.000000 1.000000 0.000000
vt 0.000000 1.000000 0.000000
vt 0.000000 0.000000 0.000000
vt 1.000000 0.000000 0.000000
# 4 texture coords

g item002
f 5/5/2 6/6/2 7/7/2 
f 7/7/2 8/8/2 5/5/2 
# 2 faces

#
# object item003
#

v  0.351152 -0.585511 -0.316601
v  -0.321829 -0.585511 -0.316601
v  -0.321829 -0.585511 0.318274
v  0.351152 -0.585511 0.318274
# 4 vertices

vn 0.000000 1.000000 -0.000000
# 1 vertex normals

vt 1.000000 1.000000 0.000000
vt 0.000000 1.000000 0.000000
vt 0.000000 0.000000 0.000000
vt 1.000000 0.000000 0.000000
# 4 texture coords

g item003
f 9/9/3 10/10/3 11/11/3 
f 11/11/3 12/12/3 9/9/3 
# 2 faces

#
# object item004
#

v  0.351152 -0.585511 -0.316601
v  -0.321829 -0.585511 -0.316601
v  -0.321829 -0.585511 0.318274
v  0.351152 -0.585511 0.318274
# 4 vertices

vn 0.000000 1.000000 -0.000000
# 1 vertex normals

vt 1.000000 1.000000 0.000000
vt 0.000000 1.000000 0.000000
vt 0.000000 0.000000 0.000000
vt 1.000000 0.000000 0.000000
# 4 texture coords

g item004
f 13/13/4 14/14/4 15/15/4 
f 15/15/4 16/16/4 13/13/4 
# 2 faces

